<mxfile host="Electron" modified="2024-04-23T07:11:23.414Z" agent="Mozilla/5.0 (Macintosh; Intel Mac OS X 10_15_7) AppleWebKit/537.36 (KHTML, like Gecko) draw.io/22.1.18 Chrome/120.0.6099.199 Electron/28.1.2 Safari/537.36" etag="NTnIxSUW0t_TM0FVb62-" version="22.1.18" type="device">
  <diagram id="MLlP6V_1RyNyVy2EzV0r" name="第 1 页">
    <mxGraphModel dx="2060" dy="1104" grid="0" gridSize="10" guides="1" tooltips="1" connect="1" arrows="1" fold="1" page="1" pageScale="1" pageWidth="827" pageHeight="1169" math="0" shadow="0">
      <root>
        <mxCell id="0" />
        <mxCell id="1" parent="0" />
        <mxCell id="n5kHHhObN0qZnFhkV2eE-1" value="" style="rounded=0;whiteSpace=wrap;html=1;strokeColor=none;fillColor=none;" parent="1" vertex="1">
          <mxGeometry x="61" y="141" width="688" height="361" as="geometry" />
        </mxCell>
        <mxCell id="5ISlMRjvqGO4JHw_S9Gw-25" value="" style="rounded=0;whiteSpace=wrap;html=1;fontFamily=Courier New;fontSize=16;fillColor=none;" parent="1" vertex="1">
          <mxGeometry x="485" y="280" width="230" height="190" as="geometry" />
        </mxCell>
        <mxCell id="5ISlMRjvqGO4JHw_S9Gw-17" value="" style="rounded=0;whiteSpace=wrap;html=1;fontFamily=Courier New;fontSize=16;fillColor=none;" parent="1" vertex="1">
          <mxGeometry x="100" y="280" width="230" height="190" as="geometry" />
        </mxCell>
        <mxCell id="5ISlMRjvqGO4JHw_S9Gw-1" value="" style="whiteSpace=wrap;html=1;aspect=fixed;fillColor=#90C9E6;strokeColor=#219EBC;" parent="1" vertex="1">
          <mxGeometry x="110" y="180" width="50" height="50" as="geometry" />
        </mxCell>
        <mxCell id="5ISlMRjvqGO4JHw_S9Gw-2" value="" style="whiteSpace=wrap;html=1;aspect=fixed;fillColor=#90C9E6;strokeColor=#219EBC;" parent="1" vertex="1">
          <mxGeometry x="190" y="180" width="50" height="50" as="geometry" />
        </mxCell>
        <mxCell id="5ISlMRjvqGO4JHw_S9Gw-3" value="" style="whiteSpace=wrap;html=1;aspect=fixed;fillColor=#90C9E6;strokeColor=#219EBC;" parent="1" vertex="1">
          <mxGeometry x="273.5" y="180" width="50" height="50" as="geometry" />
        </mxCell>
        <mxCell id="5ISlMRjvqGO4JHw_S9Gw-4" value="" style="endArrow=classic;html=1;rounded=0;strokeWidth=2;" parent="1" edge="1">
          <mxGeometry width="50" height="50" relative="1" as="geometry">
            <mxPoint x="360" y="214.5" as="sourcePoint" />
            <mxPoint x="430" y="214.5" as="targetPoint" />
          </mxGeometry>
        </mxCell>
        <mxCell id="5ISlMRjvqGO4JHw_S9Gw-5" value="&lt;font face=&quot;Courier New&quot; style=&quot;font-size: 16px;&quot;&gt;&lt;b&gt;map()&lt;/b&gt;&lt;/font&gt;" style="text;html=1;strokeColor=none;fillColor=none;align=center;verticalAlign=middle;whiteSpace=wrap;rounded=0;" parent="1" vertex="1">
          <mxGeometry x="370" y="170" width="60" height="30" as="geometry" />
        </mxCell>
        <mxCell id="5ISlMRjvqGO4JHw_S9Gw-6" value="" style="ellipse;whiteSpace=wrap;html=1;aspect=fixed;fontFamily=Courier New;fontSize=16;fillColor=#FFB703;strokeColor=#FB8402;" parent="1" vertex="1">
          <mxGeometry x="500" y="180" width="50" height="50" as="geometry" />
        </mxCell>
        <mxCell id="5ISlMRjvqGO4JHw_S9Gw-7" value="" style="ellipse;whiteSpace=wrap;html=1;aspect=fixed;fontFamily=Courier New;fontSize=16;fillColor=#FFB703;strokeColor=#FB8402;" parent="1" vertex="1">
          <mxGeometry x="575" y="180" width="50" height="50" as="geometry" />
        </mxCell>
        <mxCell id="5ISlMRjvqGO4JHw_S9Gw-8" value="" style="ellipse;whiteSpace=wrap;html=1;aspect=fixed;fontFamily=Courier New;fontSize=16;fillColor=#FFB703;strokeColor=#FB8402;" parent="1" vertex="1">
          <mxGeometry x="650" y="180" width="50" height="50" as="geometry" />
        </mxCell>
        <mxCell id="5ISlMRjvqGO4JHw_S9Gw-9" value="" style="whiteSpace=wrap;html=1;aspect=fixed;fillColor=#90C9E6;strokeColor=#219EBC;" parent="1" vertex="1">
          <mxGeometry x="110" y="290" width="50" height="50" as="geometry" />
        </mxCell>
        <mxCell id="5ISlMRjvqGO4JHw_S9Gw-10" value="" style="whiteSpace=wrap;html=1;aspect=fixed;fillColor=#90C9E6;strokeColor=#219EBC;" parent="1" vertex="1">
          <mxGeometry x="190" y="290" width="50" height="50" as="geometry" />
        </mxCell>
        <mxCell id="5ISlMRjvqGO4JHw_S9Gw-11" value="" style="whiteSpace=wrap;html=1;aspect=fixed;fillColor=#90C9E6;strokeColor=#219EBC;" parent="1" vertex="1">
          <mxGeometry x="273.5" y="290" width="50" height="50" as="geometry" />
        </mxCell>
        <mxCell id="5ISlMRjvqGO4JHw_S9Gw-12" value="" style="endArrow=classic;html=1;rounded=0;strokeWidth=2;" parent="1" edge="1">
          <mxGeometry width="50" height="50" relative="1" as="geometry">
            <mxPoint x="360" y="374.5" as="sourcePoint" />
            <mxPoint x="430" y="374.5" as="targetPoint" />
          </mxGeometry>
        </mxCell>
        <mxCell id="5ISlMRjvqGO4JHw_S9Gw-13" value="&lt;font face=&quot;Courier New&quot; style=&quot;font-size: 16px;&quot;&gt;&lt;b style=&quot;&quot;&gt;map_batches()&lt;/b&gt;&lt;/font&gt;" style="text;html=1;strokeColor=none;fillColor=none;align=center;verticalAlign=middle;whiteSpace=wrap;rounded=0;" parent="1" vertex="1">
          <mxGeometry x="380" y="330" width="60" height="30" as="geometry" />
        </mxCell>
        <mxCell id="5ISlMRjvqGO4JHw_S9Gw-14" value="" style="ellipse;whiteSpace=wrap;html=1;aspect=fixed;fontFamily=Courier New;fontSize=16;fillColor=#FFB703;strokeColor=#FB8402;" parent="1" vertex="1">
          <mxGeometry x="500" y="290" width="50" height="50" as="geometry" />
        </mxCell>
        <mxCell id="5ISlMRjvqGO4JHw_S9Gw-15" value="" style="ellipse;whiteSpace=wrap;html=1;aspect=fixed;fontFamily=Courier New;fontSize=16;fillColor=#FFB703;strokeColor=#FB8402;" parent="1" vertex="1">
          <mxGeometry x="575" y="290" width="50" height="50" as="geometry" />
        </mxCell>
        <mxCell id="5ISlMRjvqGO4JHw_S9Gw-16" value="" style="ellipse;whiteSpace=wrap;html=1;aspect=fixed;fontFamily=Courier New;fontSize=16;fillColor=#FFB703;strokeColor=#FB8402;" parent="1" vertex="1">
          <mxGeometry x="650" y="290" width="50" height="50" as="geometry" />
        </mxCell>
        <mxCell id="5ISlMRjvqGO4JHw_S9Gw-18" value="" style="whiteSpace=wrap;html=1;aspect=fixed;fillColor=#90C9E6;strokeColor=#219EBC;" parent="1" vertex="1">
          <mxGeometry x="110" y="350" width="50" height="50" as="geometry" />
        </mxCell>
        <mxCell id="5ISlMRjvqGO4JHw_S9Gw-19" value="" style="whiteSpace=wrap;html=1;aspect=fixed;fillColor=#90C9E6;strokeColor=#219EBC;" parent="1" vertex="1">
          <mxGeometry x="190" y="350" width="50" height="50" as="geometry" />
        </mxCell>
        <mxCell id="5ISlMRjvqGO4JHw_S9Gw-20" value="" style="whiteSpace=wrap;html=1;aspect=fixed;fillColor=#90C9E6;strokeColor=#219EBC;" parent="1" vertex="1">
          <mxGeometry x="273.5" y="350" width="50" height="50" as="geometry" />
        </mxCell>
        <mxCell id="5ISlMRjvqGO4JHw_S9Gw-21" value="" style="whiteSpace=wrap;html=1;aspect=fixed;fillColor=#90C9E6;strokeColor=#219EBC;" parent="1" vertex="1">
          <mxGeometry x="110" y="410" width="50" height="50" as="geometry" />
        </mxCell>
        <mxCell id="5ISlMRjvqGO4JHw_S9Gw-22" value="" style="whiteSpace=wrap;html=1;aspect=fixed;fillColor=#90C9E6;strokeColor=#219EBC;" parent="1" vertex="1">
          <mxGeometry x="190" y="410" width="50" height="50" as="geometry" />
        </mxCell>
        <mxCell id="5ISlMRjvqGO4JHw_S9Gw-23" value="" style="whiteSpace=wrap;html=1;aspect=fixed;fillColor=#90C9E6;strokeColor=#219EBC;" parent="1" vertex="1">
          <mxGeometry x="273.5" y="410" width="50" height="50" as="geometry" />
        </mxCell>
        <mxCell id="5ISlMRjvqGO4JHw_S9Gw-26" value="" style="ellipse;whiteSpace=wrap;html=1;aspect=fixed;fontFamily=Courier New;fontSize=16;fillColor=#FFB703;strokeColor=#FB8402;" parent="1" vertex="1">
          <mxGeometry x="500" y="350" width="50" height="50" as="geometry" />
        </mxCell>
        <mxCell id="5ISlMRjvqGO4JHw_S9Gw-27" value="" style="ellipse;whiteSpace=wrap;html=1;aspect=fixed;fontFamily=Courier New;fontSize=16;fillColor=#FFB703;strokeColor=#FB8402;" parent="1" vertex="1">
          <mxGeometry x="575" y="350" width="50" height="50" as="geometry" />
        </mxCell>
        <mxCell id="5ISlMRjvqGO4JHw_S9Gw-28" value="" style="ellipse;whiteSpace=wrap;html=1;aspect=fixed;fontFamily=Courier New;fontSize=16;fillColor=#FFB703;strokeColor=#FB8402;" parent="1" vertex="1">
          <mxGeometry x="650" y="350" width="50" height="50" as="geometry" />
        </mxCell>
        <mxCell id="5ISlMRjvqGO4JHw_S9Gw-29" value="" style="ellipse;whiteSpace=wrap;html=1;aspect=fixed;fontFamily=Courier New;fontSize=16;fillColor=#FFB703;strokeColor=#FB8402;" parent="1" vertex="1">
          <mxGeometry x="500" y="410" width="50" height="50" as="geometry" />
        </mxCell>
        <mxCell id="5ISlMRjvqGO4JHw_S9Gw-30" value="" style="ellipse;whiteSpace=wrap;html=1;aspect=fixed;fontFamily=Courier New;fontSize=16;fillColor=#FFB703;strokeColor=#FB8402;" parent="1" vertex="1">
          <mxGeometry x="575" y="410" width="50" height="50" as="geometry" />
        </mxCell>
        <mxCell id="5ISlMRjvqGO4JHw_S9Gw-31" value="" style="ellipse;whiteSpace=wrap;html=1;aspect=fixed;fontFamily=Courier New;fontSize=16;fillColor=#FFB703;strokeColor=#FB8402;" parent="1" vertex="1">
          <mxGeometry x="650" y="410" width="50" height="50" as="geometry" />
        </mxCell>
        <mxCell id="5ISlMRjvqGO4JHw_S9Gw-32" value="" style="endArrow=none;dashed=1;html=1;rounded=0;fontFamily=Courier New;fontSize=16;" parent="1" edge="1">
          <mxGeometry width="50" height="50" relative="1" as="geometry">
            <mxPoint x="80" y="250" as="sourcePoint" />
            <mxPoint x="720" y="250" as="targetPoint" />
          </mxGeometry>
        </mxCell>
      </root>
    </mxGraphModel>
  </diagram>
</mxfile>
